<?xml version="1.0" ?><svg viewBox="0 0 512 512" xmlns="http://www.w3.org/2000/svg"><g id="Cloud_computing"><path d="M140.818,151.5638A66.4892,66.4892,0,0,0,74.33,218.5613a6.5,6.5,0,0,0,6.499,6.4522h.0488a6.5009,6.5009,0,0,0,6.4522-6.5479,53.4889,53.4889,0,0,1,53.48-53.9018l.3554.0005h.0088a6.5,6.5,0,0,0,.0088-13Z"/><path d="M293.1236,114.909l19.3037,1.6863a4.17,4.17,0,0,1,3.6621,3.067,68.006,68.006,0,0,0,6.8946,16.4742,4.1727,4.1727,0,0,1-.4041,4.7882L310.2022,155.672a4.18,4.18,0,0,0,.2461,5.6431l12.4282,12.4283a4.18,4.18,0,0,0,5.6431.246L343.3643,161.53a4.172,4.172,0,0,1,4.7627-.4186,67.9886,67.9886,0,0,0,16.5225,6.7843,4.1713,4.1713,0,0,1,3.0957,3.67l1.6748,19.171a4.18,4.18,0,0,0,4.1641,3.8163h17.5764a4.18,4.18,0,0,0,4.1643-3.8163l1.6863-19.3035a4.17,4.17,0,0,1,3.0669-3.6621,68.0058,68.0058,0,0,0,16.4743-6.8945,4.1727,4.1727,0,0,1,4.7881.4039l14.7473,12.3777a4.18,4.18,0,0,0,5.6431-.2461l12.4282-12.4283a4.18,4.18,0,0,0,.2461-5.6431l-12.4592-14.8444a4.1718,4.1718,0,0,1-.4187-4.7626,67.9949,67.9949,0,0,0,6.7844-16.5228,4.1713,4.1713,0,0,1,3.67-3.0957l19.1709-1.6747a4.18,4.18,0,0,0,3.8164-4.1642V92.7a4.18,4.18,0,0,0-3.8164-4.1642L451.849,86.85a4.17,4.17,0,0,1-3.6621-3.0669,68.006,68.006,0,0,0-6.8946-16.4742,4.173,4.173,0,0,1,.4038-4.7883l12.3777-14.7473a4.18,4.18,0,0,0-.2458-5.643L441.4,29.7015a4.18,4.18,0,0,0-5.6431-.2461L420.9122,41.9147a4.1722,4.1722,0,0,1-4.7627.4186,67.9933,67.9933,0,0,0-16.5227-6.7843,4.171,4.171,0,0,1-3.0957-3.67L394.8565,12.708a4.18,4.18,0,0,0-4.1643-3.8163H373.1158a4.18,4.18,0,0,0-4.1643,3.8163l-1.6863,19.3036a4.1705,4.1705,0,0,1-3.0669,3.6621,68.005,68.005,0,0,0-16.4741,6.8945,4.1731,4.1731,0,0,1-4.7883-.4038L328.1886,29.7866a4.18,4.18,0,0,0-5.6431.246L310.117,42.461a4.18,4.18,0,0,0-.2458,5.6431L322.33,62.9485a4.172,4.172,0,0,1,.4187,4.7627,67.9912,67.9912,0,0,0-6.7844,16.5226,4.1712,4.1712,0,0,1-3.67,3.0956l-19.1712,1.6748a4.18,4.18,0,0,0-3.8164,4.1642v17.5764A4.18,4.18,0,0,0,293.1236,114.909ZM382.138,68.6711a33.0513,33.0513,0,1,1-33.0512,33.0513A33.0515,33.0515,0,0,1,382.138,68.6711Z"/><path d="M425.9488,353.7767h-9.3769a6.5,6.5,0,0,0,0,13h9.3769a6.5,6.5,0,0,0,0-13Z"/><path d="M460.3228,353.7767h-9.3769a6.5,6.5,0,0,0,0,13h9.3769a6.5,6.5,0,1,0,0-13Z"/><path d="M61.2527,353.7767H51.8758a6.5,6.5,0,0,0,0,13h9.3769a6.5,6.5,0,1,0,0-13Z"/><path d="M95.6268,353.7767H86.25a6.5,6.5,0,0,0,0,13h9.377a6.5,6.5,0,0,0,0-13Z"/><path d="M486.276,218.7957a97.1951,97.1951,0,0,0-9.57-43.0561,6.5,6.5,0,1,0-11.7247,5.6142A84.3125,84.3125,0,0,1,473.276,218.7c-.3406,45.8753-37.9043,83.2963-84.1592,84.3919V287.6375a21.3647,21.3647,0,0,0-21.3408-21.3408H144.4a21.3645,21.3645,0,0,0-21.34,21.3408v13.6584c-39.1889-8.171-68.1157-42.4707-68.413-82.5964a85.09,85.09,0,0,1,85.0878-85.7363h.3536a41.76,41.76,0,0,0,37.7666-24.0625,95.0671,95.0671,0,0,1,101.831-53.6528,6.5,6.5,0,0,0,2.1387-12.8233A108.0718,108.0718,0,0,0,166.066,103.42a28.7239,28.7239,0,0,1-25.9961,16.543h-.335a98.0908,98.0908,0,0,0-98.0878,98.833c.35,47.1738,34.958,87.3523,81.413,95.7346V428.7161a21.3647,21.3647,0,0,0,21.3409,21.3408l94.3691-.0243a5.5,5.5,0,0,1,0,11H219.1685V485.8H208.9068a6.5,6.5,0,0,0,0,13H303.27a6.5,6.5,0,0,0,0-13H291.4107V452.0535a1.9985,1.9985,0,0,1,1.9961-1.9966H367.776a21.3647,21.3647,0,0,0,21.3408-21.3408V316.1173C442.49,315.02,485.8827,271.787,486.276,218.7957ZM376.1168,409.7171H136.06V309.6252H376.1168Z"/></g></svg>