<svg width="789" height="183" viewBox="0 0 789 183" fill="none" xmlns="http://www.w3.org/2000/svg">
<path d="M157.222 52.1867C157.999 83.8375 9.74899 48.4634 88.8291 115.699C33.5172 135.069 2.12887 89.0532 1.35207 57.4023C0.575261 25.7515 133.308 87.8153 88.8291 0.995268C138.135 0.264117 156.445 20.5358 157.222 52.1867Z" fill="#38EF7D"/>
<path d="M233.068 91.4728C241.845 122.385 87.5373 110.387 182.097 164.207C132.773 191.662 90.3456 151.349 81.5685 120.436C72.7914 89.5237 218.644 130.064 153.049 51.748C201.205 43.4867 224.291 60.5601 233.068 91.4728Z" fill="#38EF7D"/>
<path d="M277.664 141.048L249.888 54.264H273.44L287.392 105.208L288.16 123.256L292.512 123.384L297.888 138.872C294.901 139.469 291.701 139.896 288.288 140.152C284.96 140.493 281.419 140.792 277.664 141.048ZM297.888 138.872L285.728 134.392L303.648 72.184L316.96 78.072L311.328 96.888H309.024L305.824 112.888L297.888 138.872ZM322.336 141.048L296.736 59.512L318.496 54.776L331.936 103.16L333.088 123.256L338.08 123.384L342.688 138.872C339.701 139.469 336.501 139.896 333.088 140.152C329.76 140.493 326.176 140.792 322.336 141.048ZM342.688 138.872L330.272 134.392L352.032 54.264H367.008L342.688 138.872ZM261.28 63.864L243.616 61.048L243.744 54.264H261.664L261.28 63.864ZM273.824 65.144L272.672 54.264H285.728L286.496 58.36C284.619 59.5547 282.613 60.7067 280.48 61.816C278.432 62.9253 276.213 64.0347 273.824 65.144ZM355.232 63.864L337.568 61.048L337.696 54.264H355.616L355.232 63.864ZM361.12 65.144L359.968 54.264H373.024L373.792 58.36C371.915 59.5547 369.909 60.7067 367.776 61.816C365.728 62.9253 363.509 64.0347 361.12 65.144ZM402.195 140.536C396.99 141.304 392.04 141.091 387.347 139.896C382.654 138.701 378.472 136.739 374.803 134.008C371.219 131.192 368.403 127.693 366.355 123.512C364.307 119.245 363.283 114.424 363.283 109.048C363.283 104.013 364.136 99.448 365.843 95.352C367.635 91.1707 370.067 87.5867 373.139 84.6C376.211 81.528 379.71 79.1813 383.635 77.56C387.56 75.8533 391.656 75 395.923 75C399.166 75 402.408 75.512 405.651 76.536C408.979 77.56 412.008 79.1387 414.739 81.272C417.555 83.4053 419.774 86.2213 421.395 89.72C423.102 93.2187 423.912 97.4 423.827 102.264L403.859 104.056C404.286 101.24 404.072 98.424 403.219 95.608C402.366 92.792 401 90.488 399.123 88.696C397.246 86.8187 395.027 85.7947 392.467 85.624C390.504 86.904 388.883 88.696 387.603 91C386.408 93.304 385.512 95.8213 384.915 98.552C384.318 101.283 384.019 103.885 384.019 106.36C384.019 110.797 384.83 114.509 386.451 117.496C388.072 120.483 390.291 122.787 393.107 124.408C396.008 125.944 399.251 126.712 402.835 126.712C405.566 126.712 408.211 126.285 410.771 125.432C413.331 124.579 416.104 123.384 419.091 121.848L422.291 129.144L402.195 140.536ZM416.403 109.688L378.131 109.432L376.595 100.216L413.203 97.912L423.827 102.264L416.403 109.688ZM459.795 141.304C455.784 141.304 451.432 140.877 446.739 140.024C442.046 139.171 437.48 137.976 433.043 136.44L445.331 121.464C446.952 123.341 448.787 124.963 450.835 126.328C452.968 127.608 455.315 128.547 457.875 129.144C460.52 129.656 463.336 129.699 466.323 129.272C468.883 127.139 470.803 124.237 472.083 120.568C473.448 116.899 474.131 113.144 474.131 109.304C474.131 106.147 473.619 103.203 472.595 100.472C471.656 97.656 470.248 95.4373 468.371 93.816C466.494 92.1093 464.19 91.256 461.459 91.256C459.411 91.256 457.235 91.8107 454.931 92.92C452.712 93.944 450.366 95.224 447.891 96.76L446.739 92.152L468.755 76.152C473.278 75.384 477.246 75.6827 480.659 77.048C484.158 78.328 487.102 80.376 489.491 83.192C491.966 86.008 493.843 89.336 495.123 93.176C496.403 97.016 497.043 101.112 497.043 105.464C497.043 110.072 496.275 114.509 494.739 118.776C493.203 123.043 490.856 126.883 487.699 130.296C484.627 133.709 480.744 136.397 476.051 138.36C471.443 140.323 466.024 141.304 459.795 141.304ZM433.043 136.44V51.448L448.275 44.664L455.187 51.064V133.624L433.043 136.44ZM423.571 55.8L422.931 49.4C426.686 48.0347 430.739 46.968 435.091 46.2C439.443 45.432 443.838 44.92 448.275 44.664V53.752L438.547 58.488L423.571 55.8ZM546.952 139V54.264H570.12V139H546.952ZM563.848 102.776V90.744H609.16V102.776H563.848ZM601.224 139V54.264H624.392V139H601.224ZM554.76 63.864L537.096 61.048L537.224 54.264H555.144L554.76 63.864ZM568.328 65.144L568.2 54.264H580.232L581 58.36C579.208 59.5547 577.245 60.7067 575.112 61.816C572.979 62.9253 570.717 64.0347 568.328 65.144ZM609.032 63.864L591.368 61.048L591.496 54.264H609.416L609.032 63.864ZM622.6 65.144L622.472 54.264H634.504L635.272 58.36C633.48 59.5547 631.517 60.7067 629.384 61.816C627.251 62.9253 624.989 64.0347 622.6 65.144ZM536.84 139L536.072 134.904C537.949 133.539 539.955 132.301 542.088 131.192C544.221 130.083 546.44 129.059 548.744 128.12L548.872 139H536.84ZM563.72 139L564.104 129.4L581.768 132.216L581.64 139H563.72ZM591.112 139L590.344 134.904C592.221 133.539 594.227 132.301 596.36 131.192C598.493 130.083 600.712 129.059 603.016 128.12L603.144 139H591.112ZM617.992 139L618.376 129.4L636.04 132.216L635.912 139H617.992ZM664.065 141.048C662.444 141.133 660.524 140.835 658.305 140.152C656.172 139.555 654.038 138.573 651.905 137.208C649.857 135.757 648.108 133.88 646.657 131.576C646.145 130.808 645.761 129.869 645.505 128.76C645.249 127.651 645.078 126.029 644.993 123.896C644.908 121.763 644.865 118.904 644.865 115.32V81.528L659.969 75.256L667.009 81.4V115.192C667.009 118.861 667.692 121.635 669.057 123.512C670.508 125.304 672.769 126.072 675.841 125.816C678.913 125.731 682.113 124.792 685.441 123C688.769 121.123 692.012 119.075 695.169 116.856L695.809 120.312C692.652 123.725 689.238 126.84 685.569 129.656C681.9 132.472 678.23 134.861 674.561 136.824C670.892 138.701 667.393 140.109 664.065 141.048ZM635.265 86.136L634.625 79.992C638.38 78.5413 642.433 77.432 646.785 76.664C651.137 75.8107 655.532 75.3413 659.969 75.256V84.216L650.241 88.952L635.265 86.136ZM698.241 141.048C696.534 140.963 694.785 140.451 692.993 139.512C691.286 138.573 689.665 137.251 688.129 135.544C686.678 133.837 685.484 131.875 684.545 129.656L682.625 129.016V81.528L697.857 75.256L704.769 81.4V123.384C704.769 124.237 705.025 124.963 705.537 125.56C706.134 126.157 706.945 126.456 707.969 126.456C708.993 126.456 709.974 126.413 710.913 126.328C711.937 126.243 713.132 126.157 714.497 126.072L715.265 131.704L698.241 141.048ZM675.329 85.752L674.817 79.608C678.145 78.2427 681.772 77.2187 685.697 76.536C689.708 75.768 693.761 75.3413 697.857 75.256V84.216L688.001 88.952L675.329 85.752ZM749.67 141.304C745.659 141.304 741.307 140.877 736.614 140.024C731.921 139.171 727.355 137.976 722.918 136.44L735.206 121.464C736.827 123.341 738.662 124.963 740.71 126.328C742.843 127.608 745.19 128.547 747.75 129.144C750.395 129.656 753.211 129.699 756.198 129.272C758.758 127.139 760.678 124.237 761.958 120.568C763.323 116.899 764.006 113.144 764.006 109.304C764.006 106.147 763.494 103.203 762.47 100.472C761.531 97.656 760.123 95.4373 758.246 93.816C756.369 92.1093 754.065 91.256 751.334 91.256C749.286 91.256 747.11 91.8107 744.806 92.92C742.587 93.944 740.241 95.224 737.766 96.76L736.614 92.152L758.63 76.152C763.153 75.384 767.121 75.6827 770.534 77.048C774.033 78.328 776.977 80.376 779.366 83.192C781.841 86.008 783.718 89.336 784.998 93.176C786.278 97.016 786.918 101.112 786.918 105.464C786.918 110.072 786.15 114.509 784.614 118.776C783.078 123.043 780.731 126.883 777.574 130.296C774.502 133.709 770.619 136.397 765.926 138.36C761.318 140.323 755.899 141.304 749.67 141.304ZM722.918 136.44V51.448L738.15 44.664L745.062 51.064V133.624L722.918 136.44ZM713.446 55.8L712.806 49.4C716.561 48.0347 720.614 46.968 724.966 46.2C729.318 45.432 733.713 44.92 738.15 44.664V53.752L728.422 58.488L713.446 55.8Z" fill="white"/>
</svg>
